{"title":"Leave No Trace 2018 LIMITED Movies 720p BluRay x264 5.1 MSubs +S","magnet":"magnet:?xt=urn:btih:5d775bb2fbbf0daf724db93fbf2b25260b1722ab&dn=Leave+No+Trace+2018+LIMITED+Movies+720p+BluRay+x264+5.1+MSubs+%2BS&tr=udp%3A%2F%2Ftracker.leechers-paradise.org%3A6969&tr=udp%3A%2F%2Fzer0day.ch%3A1337&tr=udp%3A%2F%2Fopen.demonii.com%3A1337&tr=udp%3A%2F%2Ftracker.coppersurfer.tk%3A6969&tr=udp%3A%2F%2Fexodus.desync.com%3A6969","uploader":"basicssom","categoryP":"video","categoryS":"hd___movies","size":"1253839710","seeders":"0","leechers":"34","description":"Leave No Trace 2018 LIMITED Movies 720p BluRay x264 5.1 MSubs with Sample &#x263B;rDX&#x263B;\r\n\r\nSCREEN SHOTS &amp; POSTER:\r\n   <a href=\"\nhttps://iphonehosting.eu/2018/9/a/premium/index.html\" rel=\"nofollow\" target=\"_NEW\">\nhttps://iphonehosting.eu/2018/9/a/premium/index.html</a> <a href=\"\nhttps://iphonehosting.eu/2018/9/a/premium/1.html\" rel=\"nofollow\" target=\"_NEW\">\nhttps://iphonehosting.eu/2018/9/a/premium/1.html</a> <a href=\"\nhttps://iphonehosting.eu/2018/9/a/premium/2.html\" rel=\"nofollow\" target=\"_NEW\">\nhttps://iphonehosting.eu/2018/9/a/premium/2.html</a>   <a href=\"\nhttps://iphonehosting.eu/2018/9/a/premium/3.html\" rel=\"nofollow\" target=\"_NEW\">\nhttps://iphonehosting.eu/2018/9/a/premium/3.html</a>   <a href=\"\nhttps://iphonehosting.eu/2018/9/a/premium/4.html\" rel=\"nofollow\" target=\"_NEW\">\nhttps://iphonehosting.eu/2018/9/a/premium/4.html</a>   <a href=\"\nhttps://iphonehosting.eu/2018/9/a/premium/5.html\" rel=\"nofollow\" target=\"_NEW\">\nhttps://iphonehosting.eu/2018/9/a/premium/5.html</a>   <a href=\"\nhttps://iphonehosting.eu/2018/9/a/premium/6.html\" rel=\"nofollow\" target=\"_NEW\">\nhttps://iphonehosting.eu/2018/9/a/premium/6.html</a>   <a href=\"\nhttps://iphonehosting.eu/2018/9/a/premium/7.html\" rel=\"nofollow\" target=\"_NEW\">\nhttps://iphonehosting.eu/2018/9/a/premium/7.html</a>   <a href=\"\nhttps://iphonehosting.eu/2018/9/a/premium/8.html\" rel=\"nofollow\" target=\"_NEW\">\nhttps://iphonehosting.eu/2018/9/a/premium/8.html</a>   <a href=\"\nhttps://iphonehosting.eu/2018/9/a/premium/9.html\" rel=\"nofollow\" target=\"_NEW\">\nhttps://iphonehosting.eu/2018/9/a/premium/9.html</a>   <a href=\"\nhttps://iphonehosting.eu/2018/9/a/premium/10.html\" rel=\"nofollow\" target=\"_NEW\">\nhttps://iphonehosting.eu/2018/9/a/premium/10.html</a>\r\n\r\nFile size                                : 1.16 GiB\r\nDuration                                 : 1 h 49 min\r\nOverall bit rate                         : 1 518 kb/s\r\nMovie name                               : Leave No Trace 2018 LIMITED Movies 720p BluRay x264 5.1 MSubs &#x263B;rDX&#x263B;\r\n\r\nVideo\r\nID                                       : 2\r\nFormat                                   : AVC\r\nFormat/Info                              : Advanced Video Codec\r\nFormat profile                           : Main@L3.1\r\nFormat settings, CABAC                   : Yes\r\nFormat settings, ReFrames                : 2 frames\r\nFormat settings, GOP                     : M=1, N=25\r\nCodec ID                                 : V_MPEG4/ISO/AVC\r\nDuration                                 : 1 h 49 min\r\nBit rate mode                            : Constant\r\nBit rate                                 : 1 000 kb/s\r\nWidth                                    : 1 280 pixels\r\nHeight                                   : 694 pixels\r\nDisplay aspect ratio                     : 1.85:1\r\nFrame rate mode                          : Constant\r\nFrame rate                               : 29.970 (30000/1001) FPS\r\nColor space                              : YUV\r\nChroma subsampling                       : 4:2:0\r\nBit depth                                : 8 bits\r\nScan type                                : Progressive\r\nBits/(Pixel*Frame)                       : 0.038\r\nStream size                              : 761 MiB (64%)\r\nTitle                                    : &#x263B;rDX&#x263B;\r\nDefault                                  : Yes\r\nForced                                   : No\r\n\r\nAudio\r\nID                                       : 1\r\nFormat                                   : AC-3\r\nFormat/Info                              : Audio Coding 3\r\nMode extension                           : CM (complete main)\r\nFormat settings, Endianness              : Big\r\nCodec ID                                 : A_AC3\r\nDuration                                 : 1 h 49 min\r\nBit rate mode                            : Constant\r\nBit rate                                 : 512 kb/s\r\nChannel(s)                               : 6 channels\r\nChannel positions                        : Front: L C R, Side: L R, LFE\r\nSampling rate                            : 44.1 kHz\r\nFrame rate                               : 28.711 FPS (1536 spf)\r\nBit depth                                : 16 bits\r\nCompression mode                         : Lossy\r\nStream size                              : 400 MiB (34%)\r\nTitle                                    : &#x263B;rDX&#x263B;\r\nDefault                                  : Yes\r\nForced                                   : No\r\n <a href=\"\nhttps://www.imdb.com/title/tt3892172\" rel=\"nofollow\" target=\"_NEW\">\nhttps://www.imdb.com/title/tt3892172</a>","last_updated":"2018-09-28T13:10:59.003Z","parsed":{"xt":"urn:btih:5d775bb2fbbf0daf724db93fbf2b25260b1722ab","dn":"Leave No Trace 2018 LIMITED Movies 720p BluRay x264 5.1 MSubs  S","tr":["udp://exodus.desync.com:6969","udp://open.demonii.com:1337","udp://tracker.coppersurfer.tk:6969","udp://tracker.leechers-paradise.org:6969","udp://zer0day.ch:1337"],"infoHash":"5d775bb2fbbf0daf724db93fbf2b25260b1722ab","infoHashBuffer":{"type":"Buffer","data":[93,119,91,178,251,191,13,175,114,77,185,63,191,43,37,38,11,23,34,171]},"name":"Leave No Trace 2018 LIMITED Movies 720p BluRay x264 5.1 MSubs  S","announce":["udp://exodus.desync.com:6969","udp://open.demonii.com:1337","udp://tracker.coppersurfer.tk:6969","udp://tracker.leechers-paradise.org:6969","udp://zer0day.ch:1337"],"urlList":[]}}